<svg width="80" height="80" viewBox="0 0 80 80" fill="none" xmlns="http://www.w3.org/2000/svg">
<g id="icon-2">
<circle id="Ellipse-2" cx="40" cy="40" r="40" fill="#EAFAF3"/>
<g id="smile">
<path id="Rectangle_33" opacity="0.3" fill-rule="evenodd" clip-rule="evenodd" d="M23 40C23 35.0294 24.7574 30.7868 28.2721 27.2721C31.7868 23.7574 36.0294 22 41 22C45.9706 22 50.2132 23.7574 53.7279 27.2721C57.2426 30.7868 59 35.0294 59 40C59 44.9706 57.2426 49.2132 53.7279 52.7279C50.2132 56.2426 45.9706 58 41 58C36.0294 58 31.7868 56.2426 28.2721 52.7279C24.7574 49.2132 23 44.9706 23 40Z" fill="#2DCA8C"/>
<path id="Path_120" fill-rule="evenodd" clip-rule="evenodd" d="M30.7522 44.534C30.3974 44.016 30.3487 43.3473 30.6246 42.7833C30.9004 42.2193 31.4583 41.8473 32.0849 41.8094C32.7116 41.7714 33.3103 42.0735 33.6522 42.6C35.6692 45.626 38.0522 47.053 40.9182 47.053C43.7842 47.053 46.1672 45.625 48.1842 42.6C48.526 42.0734 49.1247 41.7714 49.7514 41.8093C50.3781 41.8473 50.9359 42.2193 51.2118 42.7833C51.4877 43.3473 51.4389 44.016 51.0842 44.534C48.4522 48.481 45.0212 50.54 40.9172 50.54C36.8132 50.54 33.3842 48.482 30.7522 44.534Z" fill="#2DCA8C"/>
</g>
</g>
</svg>
